<svg version="1.2" xmlns="http://www.w3.org/2000/svg" viewBox="0 0 17 9" width="17" height="9">
	<title>themify-logo-svgrepo-com-svg</title>
	<style>
		.s0 { fill: #000000 } 
	</style>
	<path id="Layer" fill-rule="evenodd" class="s0" d="m2.6 2.8c-0.1 0-0.2 0-0.3 0v0.1c-0.4 0.7-1.2 2.9-1.4 3.2-0.2 0-0.6 0-0.6-0.4 0-0.2 0.9-2.3 1-2.7q-0.2 0-0.3 0-0.1 0-0.2 0c-0.2 0-0.7 0-0.8-0.5 0-0.1 0.1-0.3 0.1-0.4 0.1 0.2 0.4 0.2 0.5 0.2 0.3 0 0.8-0.1 1.1-0.1 0.3-0.1 0.7-0.2 1.1-0.2 0.3 0 0.6 0.2 0.6 0.5q0 0.2-0.1 0.4c-0.2-0.1-0.5-0.1-0.7-0.1zm5 2.3c-0.4 0.6-1 1-1.6 1-0.2 0-0.7-0.1-0.7-0.6-0.1 0.2-0.5 0.7-0.9 0.7q0 0 0 0c-0.4 0-0.4-0.3-0.4-0.6 0-0.5 0.5-1.6 0.5-1.6-0.5 0-1.2 1.1-1.4 2.2-0.4 0-0.6-0.3-0.6-0.6 0-0.3 0.3-1.1 0.6-1.8 0.2-0.4 0.7-1.1 0.8-2 0.1 0 0.3-0.1 0.4-0.1 0.2 0 0.3 0.2 0.3 0.4 0 0.2-0.6 1.5-0.7 1.7 0 0 0.7-0.4 1.1-0.4q0.4 0 0.4 0.4c0 0.2-0.2 0.4-0.3 0.7-0.2 0.3-0.4 0.6-0.4 0.8q-0.1 0.1 0 0.2c0 0 0.3 0 0.6-0.3 0.2-0.8 1-1.9 1.8-1.9 0.4 0 0.6 0.2 0.6 0.6 0.2 1-1.2 1.7-1.5 1.2-0.1-0.1 0.7 0.1 0.9-0.8 0-0.2-0.1-0.2-0.2-0.2-0.3 0-0.8 0.6-0.8 1.1 0 0.4 0.2 0.4 0.4 0.4 0.3-0.1 0.9-0.4 1.1-0.5zm3.2 0.4q0.2 0 0.4-0.1c-0.1 0.4-0.4 0.8-0.8 0.8q-0.4 0-0.4-0.5c0-0.5 0.3-1.1 0.4-1.3l0.1-0.1h-0.1c-0.3 0-1.1 1.1-1.2 1.8q-0.1 0-0.1 0c-0.2 0-0.4-0.2-0.4-0.4 0-0.2 0.1-0.5 0.2-0.8q0.2-0.2 0.3-0.5h-0.1c-0.4 0-0.9 1-1.1 1.7q0 0-0.1 0c-0.2 0-0.4-0.2-0.4-0.5 0 0 0.1-0.4 0.3-0.8 0.2-0.5 0.5-1.2 0.5-1.5q0.2 0 0.3 0c0.1 0 0.3 0 0.3 0.3 0 0.1 0 0.5 0 0.5 0.3-0.4 0.7-0.7 1-0.7q0.3 0 0.3 0.5v0.1-0.1c0.3-0.3 0.7-0.5 0.9-0.5q0.3 0 0.3 0.2c0 0.3-0.3 0.8-0.5 1.1q-0.2 0.4-0.2 0.6c0 0.2 0 0.2 0.1 0.2zm1 0.7c-0.3 0-0.5-0.4-0.5-0.7 0-0.2 0.2-0.7 0.4-1.2q0.3-0.4 0.4-0.9 0 0 0 0 0.1 0 0.1 0c0.2 0 0.5 0.2 0.5 0.4 0 0.2-0.2 0.4-0.3 0.7-0.2 0.4-0.4 0.7-0.4 0.9 0 0.2 0.3 0.4 0.5 0.2-0.1 0.4-0.3 0.5-0.7 0.6zm5.2-2.7q0 0.1-0.1 0.4-0.1 0.1-0.1 0.3c-0.1 0.1-0.2 0.5-0.3 0.6-0.3 1-0.7 2.1-1.7 2.2q0 0 0 0c-0.3 0.1-0.5 0-0.7-0.2-0.3-0.3-0.2-0.6-0.2-0.6 0 0 0.2 0.3 0.7 0.3 0.4 0 0.8-0.5 1-1.2-0.2 0.3-0.9 0.7-1.2 0.5-0.1-0.1-0.1-0.2-0.1-0.4 0-0.2 0.2-0.8 0.3-1.1q0.1-0.3 0.2-0.5-0.1-0.1-0.1-0.1 0 0-0.1 0-0.1 0-0.2 0-0.2 0.1-0.3 0.3c0 0-1.3 2.9-1.4 3.4-0.2 0-0.6-0.3-0.6-0.6 0-0.2 0.5-1.2 0.8-1.8 0.2-0.4 0.4-1.1 0.4-1.1 0-0.1-0.2-0.1-0.2-0.2 0-0.1 0.1-0.3 0.2-0.3q0 0 0.1 0c0-0.1 0.2-0.1 0.2-0.1h0.1v-0.1c0.2-0.6 0.7-1.6 1.5-1.6q0.6 0 0.7 0.6c0 0.1 0 0.1-0.1 0.3-0.1-0.4-0.4-0.4-0.7-0.2-0.1 0.1-0.5 0.5-0.6 1q0.2 0 0.4 0 0.2 0 0.4 0 0.1 0 0.1 0.1 0.1 0 0.1 0 0 0.1 0 0.1c0 0.2-0.1 0.5-0.2 0.8-0.1 0.2-0.2 0.5-0.2 0.6 0.2 0.4 1.2-1.2 1.3-1.7 0.3 0 0.6 0.1 0.6 0.3zm-4.8-0.6c0-0.2 0-0.3 0.2-0.5 0.6 0 0.8 0.1 0.8 0.2q0 0.2-0.2 0.5-0.2 0-0.4 0-0.4 0-0.4-0.2z"/>
</svg>